<?xml version="1.0" encoding="UTF-8" standalone="no"?>
<!-- Created with Inkscape (http://www.inkscape.org/) -->

<svg
   version="1.1"
   id="svg1"
   width="793.70135"
   height="1122.52"
   viewBox="0 0 793.70135 1122.52"
   xmlns="http://www.w3.org/2000/svg"
   xmlns:svg="http://www.w3.org/2000/svg">
  <defs
     id="defs1">
    <clipPath
       clipPathUnits="userSpaceOnUse"
       id="clipPath160">
      <path
         d="M 0,0 H 595.276 V 841.89 H 0 Z"
         transform="translate(-205.97671,-362.34041)"
         id="path160" />
    </clipPath>
    <clipPath
       clipPathUnits="userSpaceOnUse"
       id="clipPath162">
      <path
         d="M 0,0 H 595.276 V 841.89 H 0 Z"
         transform="translate(-205.35381,-362.34411)"
         id="path162" />
    </clipPath>
    <clipPath
       clipPathUnits="userSpaceOnUse"
       id="clipPath165">
      <path
         d="M 0,0 H 595.276 V 841.89 H 0 Z"
         transform="translate(-229.80211,-343.66641)"
         id="path165" />
    </clipPath>
    <clipPath
       clipPathUnits="userSpaceOnUse"
       id="clipPath167">
      <path
         d="M 0,0 H 595.276 V 841.89 H 0 Z"
         transform="translate(-229.17901,-343.67011)"
         id="path167" />
    </clipPath>
    <clipPath
       clipPathUnits="userSpaceOnUse"
       id="clipPath170">
      <path
         d="M 0,0 H 595.276 V 841.89 H 0 Z"
         transform="translate(-444.27711,-505.86701)"
         id="path170" />
    </clipPath>
    <clipPath
       clipPathUnits="userSpaceOnUse"
       id="clipPath176">
      <path
         d="M 0,0 H 595.276 V 841.89 H 0 Z"
         transform="translate(-440.83971,-365.52961)"
         id="path176" />
    </clipPath>
    <clipPath
       clipPathUnits="userSpaceOnUse"
       id="clipPath180">
      <path
         d="M 0,0 H 595.276 V 841.89 H 0 Z"
         transform="translate(-382.22731,-159.8557)"
         id="path180" />
    </clipPath>
    <clipPath
       clipPathUnits="userSpaceOnUse"
       id="clipPath184">
      <path
         d="M 0,0 H 595.276 V 841.89 H 0 Z"
         transform="translate(-167.1118,-206.60491)"
         id="path184" />
    </clipPath>
    <clipPath
       clipPathUnits="userSpaceOnUse"
       id="clipPath188">
      <path
         d="M 0,0 H 595.276 V 841.89 H 0 Z"
         transform="translate(-170.8861,-378.09221)"
         id="path188" />
    </clipPath>
    <clipPath
       clipPathUnits="userSpaceOnUse"
       id="clipPath193">
      <path
         d="M 0,0 H 595.276 V 841.89 H 0 Z"
         transform="translate(-313.50831,-443.74931)"
         id="path193" />
    </clipPath>
    <clipPath
       clipPathUnits="userSpaceOnUse"
       id="clipPath196">
      <path
         d="M 0,0 H 595.276 V 841.89 H 0 Z"
         transform="translate(-441.83881,-277.0582)"
         id="path196" />
    </clipPath>
    <clipPath
       clipPathUnits="userSpaceOnUse"
       id="clipPath259">
      <path
         d="M 0,0 H 595.276 V 841.89 H 0 Z"
         transform="translate(-259.20531,-560.64671)"
         id="path259" />
    </clipPath>
  </defs>
  <g
     id="g1">
    <g
       id="g125">
      <path
         id="path126"
         d="M 0,0 22.087,-23.386"
         style="fill:none;stroke:#231f20;stroke-width:0.615;stroke-linecap:butt;stroke-linejoin:miter;stroke-miterlimit:4;stroke-dasharray:5.849, 5.849;stroke-dashoffset:0;stroke-opacity:1"
         transform="matrix(1.3333333,0,0,-1.3333333,437.97747,190.20333)" />
      <path
         id="path127"
         d="M 0,0 H -6.909"
         style="fill:none;stroke:#231f20;stroke-width:0.615;stroke-linecap:butt;stroke-linejoin:miter;stroke-miterlimit:4;stroke-dasharray:4.606, 4.606;stroke-dashoffset:0;stroke-opacity:1"
         transform="matrix(1.3333333,0,0,-1.3333333,463.568,227.0536)" />
      <path
         id="path128"
         d="M 0,0 0.831,-105.229"
         style="fill:none;stroke:#231f20;stroke-width:0.615;stroke-linecap:butt;stroke-linejoin:miter;stroke-miterlimit:4;stroke-dasharray:6.013, 6.013;stroke-dashoffset:0;stroke-opacity:1"
         transform="matrix(1.3333333,0,0,-1.3333333,448.30867,239.07973)" />
      <path
         id="path129"
         d="M 0,0 H -10.453"
         style="fill:none;stroke:#231f20;stroke-width:0.615;stroke-linecap:butt;stroke-linejoin:miter;stroke-miterlimit:4;stroke-dasharray:6.969, 6.969;stroke-dashoffset:0;stroke-opacity:1"
         transform="matrix(1.3333333,0,0,-1.3333333,435.54307,387.402)" />
      <path
         id="path130"
         d="M 0,0 -0.004,105.229"
         style="fill:none;stroke:#231f20;stroke-width:0.615;stroke-linecap:butt;stroke-linejoin:miter;stroke-miterlimit:4;stroke-dasharray:6.013, 6.013;stroke-dashoffset:0;stroke-opacity:1"
         transform="matrix(1.3333333,0,0,-1.3333333,412.31427,375.37573)" />
      <path
         id="path131"
         d="M 0,0 H -6.909"
         style="fill:none;stroke:#231f20;stroke-width:0.615;stroke-linecap:butt;stroke-linejoin:miter;stroke-miterlimit:4;stroke-dasharray:4.606, 4.606;stroke-dashoffset:0;stroke-opacity:1"
         transform="matrix(1.3333333,0,0,-1.3333333,403.0956,227.0536)" />
      <path
         id="path132"
         d="M 0,0 21.437,22.087"
         style="fill:none;stroke:#231f20;stroke-width:0.615;stroke-linecap:butt;stroke-linejoin:miter;stroke-miterlimit:4;stroke-dasharray:5.596, 5.596;stroke-dashoffset:0;stroke-opacity:1"
         transform="matrix(1.3333333,0,0,-1.3333333,395.53653,219.02213)" />
      <path
         id="path133"
         d="m 0,0 2.008,-2.126 m 28.11,-29.764 2.008,-2.126 h -2.303 m -13.819,0 h -2.303 l 0.024,-3.006 m 0.902,-114.248 0.024,-3.007 h -3.485 m -20.905,0 h -3.484 l -10e-4,3.007 m -0.004,114.248 v 3.006 h -2.303 m -13.819,0 h -2.304 l 1.949,2.008 m 27.284,28.11 1.949,2.008"
         style="fill:none;stroke:#231f20;stroke-width:0.615;stroke-linecap:butt;stroke-linejoin:miter;stroke-miterlimit:4;stroke-dasharray:none;stroke-opacity:1"
         transform="matrix(1.3333333,0,0,-1.3333333,429.946,181.69933)" />
    </g>
    <g
       id="g133">
      <path
         id="path134"
         d="m 332.235,554.929 h -19.049 v 123.552 h 19.049 z"
         style="fill:#5a8fd2;fill-opacity:1;fill-rule:nonzero;stroke:none"
         transform="matrix(1.3333333,0,0,-1.3333333,0,1122.52)" />
    </g>
    <path
       id="path135"
       d="M 0,0 -23.091,23.091 -46.181,0 Z"
       style="fill:#5a8fd2;fill-opacity:1;fill-rule:nonzero;stroke:none"
       transform="matrix(1.3333333,0,0,-1.3333333,460.81867,222.91373)" />
    <g
       id="g135">
      <path
         id="path136"
         d="M 0,0 22.087,-23.386"
         style="fill:none;stroke:#231f20;stroke-width:0.615;stroke-linecap:butt;stroke-linejoin:miter;stroke-miterlimit:4;stroke-dasharray:5.849, 5.849;stroke-dashoffset:0;stroke-opacity:1"
         transform="matrix(1.3333333,0,0,-1.3333333,353.568,240.9452)" />
      <path
         id="path137"
         d="M 0,0 H -6.909"
         style="fill:none;stroke:#231f20;stroke-width:0.615;stroke-linecap:butt;stroke-linejoin:miter;stroke-miterlimit:4;stroke-dasharray:4.606, 4.606;stroke-dashoffset:0;stroke-opacity:1"
         transform="matrix(1.3333333,0,0,-1.3333333,379.15853,277.7956)" />
      <path
         id="path138"
         d="M 0,0 V -67.525"
         style="fill:none;stroke:#231f20;stroke-width:0.615;stroke-linecap:butt;stroke-linejoin:miter;stroke-miterlimit:4;stroke-dasharray:5.872, 5.872;stroke-dashoffset:0;stroke-opacity:1"
         transform="matrix(1.3333333,0,0,-1.3333333,363.80427,289.53907)" />
      <path
         id="path139"
         d="M 0,0 H -10.098"
         style="fill:none;stroke:#231f20;stroke-width:0.615;stroke-linecap:butt;stroke-linejoin:miter;stroke-miterlimit:4;stroke-dasharray:6.732, 6.732;stroke-dashoffset:0;stroke-opacity:1"
         transform="matrix(1.3333333,0,0,-1.3333333,350.33973,387.40187)" />
      <path
         id="path140"
         d="M 0,0 V 67.525"
         style="fill:none;stroke:#231f20;stroke-width:0.615;stroke-linecap:butt;stroke-linejoin:miter;stroke-miterlimit:4;stroke-dasharray:5.872, 5.872;stroke-dashoffset:0;stroke-opacity:1"
         transform="matrix(1.3333333,0,0,-1.3333333,327.8988,375.6584)" />
      <path
         id="path141"
         d="M 0,0 H -6.909"
         style="fill:none;stroke:#231f20;stroke-width:0.615;stroke-linecap:butt;stroke-linejoin:miter;stroke-miterlimit:4;stroke-dasharray:4.606, 4.606;stroke-dashoffset:0;stroke-opacity:1"
         transform="matrix(1.3333333,0,0,-1.3333333,318.68613,277.7956)" />
      <path
         id="path142"
         d="M 0,0 21.437,22.087"
         style="fill:none;stroke:#231f20;stroke-width:0.615;stroke-linecap:butt;stroke-linejoin:miter;stroke-miterlimit:4;stroke-dasharray:5.596, 5.596;stroke-dashoffset:0;stroke-opacity:1"
         transform="matrix(1.3333333,0,0,-1.3333333,311.12707,269.764)" />
      <path
         id="path143"
         d="m 0,0 2.008,-2.126 m 28.11,-29.764 2.008,-2.126 h -2.303 m -13.819,0 h -2.303 v -2.936 m 0,-76.333 v -2.935 h -3.366 m -20.197,0 h -3.366 v 2.935 m 0,76.333 v 2.936 h -2.304 m -13.818,0 h -2.304 l 1.949,2.008 m 27.284,28.11 1.949,2.008"
         style="fill:none;stroke:#231f20;stroke-width:0.615;stroke-linecap:butt;stroke-linejoin:miter;stroke-miterlimit:4;stroke-dasharray:none;stroke-opacity:1"
         transform="matrix(1.3333333,0,0,-1.3333333,345.53653,232.4412)" />
    </g>
    <g
       id="g143">
      <path
         id="path144"
         d="m 269.121,556.176 h -19.049 v 89.99 h 19.049 z"
         style="fill:#3cb597;fill-opacity:1;fill-rule:nonzero;stroke:none"
         transform="matrix(1.3333333,0,0,-1.3333333,0,1122.52)" />
    </g>
    <path
       id="path145"
       d="M 0,0 -23.091,23.091 -46.181,0 Z"
       style="fill:#3cb597;fill-opacity:1;fill-rule:nonzero;stroke:none"
       transform="matrix(1.3333333,0,0,-1.3333333,376.36493,273.9152)" />
    <g
       id="g155">
      <path
         id="path156"
         d="M 0,0 C 0,0 7.58,21.934 16.098,11.591 25.113,0.644 0,0 0,0"
         style="fill:#9eb421;fill-opacity:1;fill-rule:nonzero;stroke:none"
         transform="matrix(1.3333333,0,0,-1.3333333,238.57573,663.43947)" />
      <path
         id="path157"
         d="M 0,0 C 0,0 -7.58,21.935 -16.098,11.591 -25.113,0.644 0,0 0,0"
         style="fill:#9eb421;fill-opacity:1;fill-rule:nonzero;stroke:none"
         transform="matrix(1.3333333,0,0,-1.3333333,237.74493,663.43453)" />
      <path
         id="path158"
         d="M 180.219,345.598 H 177 v -25.757 h 3.219 z"
         style="fill:#9eb421;fill-opacity:1;fill-rule:nonzero;stroke:none"
         transform="matrix(1.3333333,0,0,-1.3333333,0,1122.52)" />
      <path
         id="path159"
         d="M 0,0 C 0,0 7.58,21.934 16.098,11.591 25.113,0.644 0,0 0,0"
         style="fill:#9eb421;fill-opacity:1;fill-rule:nonzero;stroke:none"
         transform="matrix(1.3333333,0,0,-1.3333333,274.6356,639.39947)"
         clip-path="url(#clipPath160)" />
      <path
         id="path161"
         d="M 0,0 C 0,0 -7.58,21.935 -16.098,11.591 -25.113,0.644 0,0 0,0"
         style="fill:#9eb421;fill-opacity:1;fill-rule:nonzero;stroke:none"
         transform="matrix(1.3333333,0,0,-1.3333333,273.80507,639.39453)"
         clip-path="url(#clipPath162)" />
      <path
         id="path163"
         d="m 207.264,363.628 h -3.219 v -43.376 h 3.219 z"
         style="fill:#9eb421;fill-opacity:1;fill-rule:nonzero;stroke:none"
         transform="matrix(1.3333333,0,0,-1.3333333,0,1122.52)" />
      <path
         id="path164"
         d="M 0,0 C 0,0 7.58,21.934 16.098,11.591 25.113,0.644 0,0 0,0"
         style="fill:#9eb421;fill-opacity:1;fill-rule:nonzero;stroke:none"
         transform="matrix(1.3333333,0,0,-1.3333333,306.4028,664.29813)"
         clip-path="url(#clipPath165)" />
      <path
         id="path166"
         d="M 0,0 C 0,0 -7.58,21.934 -16.098,11.591 -25.113,0.644 0,0 0,0"
         style="fill:#9eb421;fill-opacity:1;fill-rule:nonzero;stroke:none"
         transform="matrix(1.3333333,0,0,-1.3333333,305.572,664.2932)"
         clip-path="url(#clipPath167)" />
      <path
         id="path168"
         d="m 231.09,344.954 h -3.219 v -25.757 h 3.219 z"
         style="fill:#9eb421;fill-opacity:1;fill-rule:nonzero;stroke:none"
         transform="matrix(1.3333333,0,0,-1.3333333,0,1122.52)" />
    </g>
    <g
       id="g168">
      <path
         id="path169"
         d="m 0,0 c -16.643,-6.5 -25.901,-24.573 -30.953,-40.315 -66.533,27.231 -165.022,20.835 -223.171,-2.367 -4.328,16.968 -15.568,45.489 -41.61,40.2 -36.662,-7.446 -80.656,-59.566 -58.659,-71.975 14.06,-7.932 32.1,-15.858 43.299,-20.549 -42.45,-72.139 -113.008,-219.792 -38.031,-275.828 84.07,-62.831 363.475,-94.248 407.983,-10.472 40.304,75.863 -2.525,224.715 -23.828,277.427 20.264,5.442 43.992,16.164 48.069,36.867 C 90.432,-29.783 31.773,12.41 0,0"
         style="fill:#fab957;fill-opacity:1;fill-rule:nonzero;stroke:none"
         transform="matrix(1.3333333,0,0,-1.3333333,592.36947,448.03067)"
         clip-path="url(#clipPath170)" />
    </g>
    <g
       id="g170">
      <path
         id="path171"
         d="M 0,0 C 0,0 41.837,-5.551 39.841,21.102 37.844,47.756 14.529,55.2 2.402,40.86 -9.723,26.519 -12.655,17.049 -12.655,17.049 Z"
         style="fill:#d18470;fill-opacity:1;fill-rule:nonzero;stroke:none"
         transform="matrix(1.3333333,0,0,-1.3333333,609.4692,542.9552)" />
    </g>
    <g
       id="g171">
      <path
         id="path172"
         d="m 0,0 c 0,-103.602 -85.248,-187.596 -190.401,-187.596 -105.154,0 -190.399,83.994 -190.399,187.596 0,103.602 85.245,187.588 190.399,187.588 C -85.248,187.588 0,103.602 0,0"
         style="fill:#ffffff;fill-opacity:1;fill-rule:nonzero;stroke:none"
         transform="matrix(1.3333333,0,0,-1.3333333,654.08013,750.63867)" />
    </g>
    <g
       id="g172">
      <path
         id="path173"
         d="m 0,0 c 0,0 -7.332,42.192 -31.773,32.265 -24.441,-9.928 -24.441,-34.747 -7.333,-42.193 17.109,-7.446 26.885,-7.446 26.885,-7.446 z"
         style="fill:#d18470;fill-opacity:1;fill-rule:nonzero;stroke:none"
         transform="matrix(1.3333333,0,0,-1.3333333,224.12747,527.45173)" />
    </g>
    <g
       id="g173">
      <path
         id="path174"
         d="M 0,0 H 7.947 V -27.896 H 2.675 v 22.908 h -5.746 z"
         style="fill:#fcce06;fill-opacity:1;fill-rule:nonzero;stroke:none"
         transform="matrix(1.3333333,0,0,-1.3333333,513.96147,550.18907)" />
    </g>
    <g
       id="g174">
      <path
         id="path175"
         d="m 0,0 h -5.177 c 0.141,3.009 1.083,5.376 2.835,7.101 1.752,1.726 3.998,2.589 6.743,2.589 1.691,0 3.187,-0.358 4.484,-1.071 1.296,-0.715 2.332,-1.745 3.108,-3.091 0.779,-1.347 1.167,-2.716 1.167,-4.106 0,-1.657 -0.469,-3.439 -1.413,-5.347 -0.941,-1.91 -2.664,-4.166 -5.171,-6.771 l -3.13,-3.3 h 9.942 v -4.911 H -5.934 v 2.542 l 8.626,8.799 c 2.087,2.111 3.475,3.809 4.165,5.092 0.686,1.282 1.032,2.443 1.032,3.479 0,1.075 -0.358,1.963 -1.073,2.664 C 6.104,4.371 5.18,4.721 4.06,4.721 2.92,4.721 1.97,4.298 1.217,3.451 0.453,2.604 0.051,1.453 0,0"
         style="fill:#f7980f;fill-opacity:1;fill-rule:nonzero;stroke:none"
         transform="matrix(1.3333333,0,0,-1.3333333,587.78627,635.1472)"
         clip-path="url(#clipPath176)" />
    </g>
    <g
       id="g176">
      <path
         id="path177"
         d="m 0,0 h -5.103 c 0.265,2.06 1.005,3.717 2.22,4.968 1.692,1.746 3.824,2.617 6.388,2.617 2.29,0 4.208,-0.726 5.756,-2.179 1.552,-1.455 2.325,-3.18 2.325,-5.179 0,-1.237 -0.337,-2.371 -1.015,-3.394 -0.676,-1.022 -1.66,-1.85 -2.951,-2.484 1.695,-0.505 3.02,-1.389 3.974,-2.645 0.956,-1.257 1.433,-2.739 1.433,-4.446 0,-2.505 -0.924,-4.623 -2.77,-6.363 -1.846,-1.739 -4.198,-2.607 -7.055,-2.607 -2.704,0 -4.912,0.818 -6.617,2.456 -1.707,1.636 -2.642,3.865 -2.808,6.683 h 5.253 c 0.228,-1.441 0.732,-2.511 1.508,-3.215 0.776,-0.7 1.762,-1.051 2.95,-1.051 1.24,0 2.265,0.397 3.081,1.195 0.817,0.797 1.224,1.768 1.224,2.92 0,1.265 -0.549,2.333 -1.649,3.206 -1.102,0.873 -2.69,1.319 -4.761,1.345 v 4.55 c 1.277,0.103 2.23,0.302 2.853,0.599 0.627,0.296 1.113,0.703 1.461,1.223 0.349,0.518 0.521,1.068 0.521,1.65 0,0.759 -0.265,1.388 -0.794,1.886 C 4.891,2.234 4.196,2.484 3.336,2.484 2.577,2.484 1.888,2.255 1.269,1.793 0.65,1.331 0.227,0.733 0,0"
         style="fill:#e72e2c;fill-opacity:1;fill-rule:nonzero;stroke:none"
         transform="matrix(1.3333333,0,0,-1.3333333,619.6216,736.16947)" />
    </g>
    <g
       id="g177">
      <path
         id="path178"
         d="m 0,0 h 5.294 v -17.958 h 2.483 v -4.91 H 5.294 v -5.729 H 0.097 v 5.729 h -12.175 v 4.91 z m 0.097,-17.958 v 9.347 l -6.372,-9.347 z"
         style="fill:#ec54b2;fill-opacity:1;fill-rule:nonzero;stroke:none"
         transform="matrix(1.3333333,0,0,-1.3333333,592.0756,830.7172)" />
    </g>
    <g
       id="g178">
      <path
         id="path179"
         d="M 0,0 H 13.065 V -4.911 H 3.963 L 2.827,-9.975 c 0.315,0.089 0.624,0.156 0.927,0.201 0.304,0.044 0.593,0.065 0.872,0.065 2.53,0 4.629,-0.865 6.309,-2.586 1.673,-1.727 2.511,-3.939 2.511,-6.631 0,-2.716 -0.93,-5.01 -2.777,-6.874 -1.852,-1.865 -4.107,-2.796 -6.764,-2.796 -2.374,0 -4.415,0.675 -6.123,2.028 -1.707,1.354 -2.829,3.206 -3.356,5.557 H 0 c 0.43,-0.872 0.994,-1.532 1.699,-1.983 0.698,-0.448 1.474,-0.672 2.322,-0.672 1.174,0 2.172,0.423 2.995,1.269 0.822,0.848 1.234,1.937 1.234,3.264 0,1.288 -0.383,2.347 -1.149,3.174 -0.764,0.83 -1.689,1.243 -2.778,1.243 -0.58,0 -1.152,-0.142 -1.713,-0.434 -0.566,-0.293 -1.118,-0.729 -1.662,-1.311 l -4.323,0.969 z"
         style="fill:#8a61b7;fill-opacity:1;fill-rule:nonzero;stroke:none"
         transform="matrix(1.3333333,0,0,-1.3333333,509.6364,909.37907)"
         clip-path="url(#clipPath180)" />
    </g>
    <g
       id="g180">
      <path
         id="path181"
         d="m 0,0 4.523,-2.261 -4.882,-9.474 c 2.364,0 4.373,-0.851 6.029,-2.543 1.656,-1.696 2.485,-3.801 2.485,-6.316 0,-2.428 -0.849,-4.484 -2.55,-6.173 -1.701,-1.685 -3.751,-2.53 -6.153,-2.53 -2.516,0 -4.612,0.875 -6.288,2.624 -1.676,1.752 -2.512,3.76 -2.512,6.022 0,0.861 0.131,1.726 0.387,2.599 0.26,0.875 0.857,2.212 1.795,4.018 z m -0.663,-16.763 c -0.986,0 -1.813,-0.359 -2.484,-1.071 -0.673,-0.714 -1.004,-1.61 -1.004,-2.684 0,-1.073 0.349,-1.979 1.049,-2.712 0.706,-0.734 1.521,-1.099 2.457,-1.099 0.987,0 1.834,0.359 2.542,1.08 0.707,0.72 1.062,1.631 1.062,2.731 0,1.074 -0.344,1.97 -1.033,2.684 -0.689,0.712 -1.554,1.071 -2.589,1.071"
         style="fill:#2a3e92;fill-opacity:1;fill-rule:nonzero;stroke:none"
         transform="matrix(1.3333333,0,0,-1.3333333,407.95453,949.32093)" />
    </g>
    <g
       id="g181">
      <path
         id="path182"
         d="M 0,0 H 18.301 V -2.791 L 5.709,-28.599 1.223,-26.421 11.701,-4.988 H 0 Z"
         style="fill:#5a8fd2;fill-opacity:1;fill-rule:nonzero;stroke:none"
         transform="matrix(1.3333333,0,0,-1.3333333,284.86533,918.61267)" />
    </g>
    <g
       id="g182">
      <path
         id="path183"
         d="m 0,0 c 1.262,-0.811 2.241,-1.85 2.929,-3.12 0.689,-1.272 1.034,-2.649 1.034,-4.126 0,-1.608 -0.402,-3.094 -1.205,-4.46 -0.803,-1.367 -1.88,-2.395 -3.234,-3.085 -1.352,-0.689 -3.076,-1.034 -5.175,-1.034 -2.252,0 -4.04,0.331 -5.368,0.996 -1.328,0.663 -2.39,1.669 -3.186,3.018 -0.795,1.346 -1.195,2.867 -1.195,4.565 0,1.466 0.321,2.803 0.959,4.01 0.637,1.209 1.595,2.287 2.872,3.236 -0.832,0.846 -1.462,1.748 -1.886,2.703 -0.423,0.952 -0.637,1.96 -0.637,3.02 0,1.452 0.352,2.776 1.055,3.97 0.699,1.192 1.682,2.123 2.947,2.787 1.264,0.662 2.725,0.993 4.38,0.993 1.632,0 3.068,-0.334 4.306,-1.005 C -0.166,11.8 0.81,10.849 1.527,9.616 2.241,8.385 2.597,7.063 2.597,5.647 2.597,4.648 2.409,3.725 2.038,2.873 1.665,2.02 0.985,1.061 0,0 m -5.671,-2.836 c -1.276,0 -2.352,-0.388 -3.224,-1.168 -0.872,-0.775 -1.309,-1.701 -1.309,-2.777 0,-1.125 0.411,-2.076 1.233,-2.851 0.822,-0.779 1.903,-1.169 3.244,-1.169 1.352,0 2.429,0.364 3.232,1.091 0.804,0.73 1.205,1.666 1.205,2.816 0,1.153 -0.417,2.115 -1.253,2.89 -0.832,0.78 -1.877,1.168 -3.128,1.168 M -5.88,8.354 c -0.872,0 -1.589,-0.288 -2.153,-0.861 -0.562,-0.574 -0.844,-1.308 -0.844,-2.202 0,-0.894 0.298,-1.647 0.893,-2.251 0.593,-0.605 1.326,-0.907 2.198,-0.907 0.899,0 1.636,0.294 2.21,0.89 0.575,0.591 0.864,1.359 0.864,2.305 0,0.895 -0.291,1.621 -0.873,2.184 -0.582,0.56 -1.348,0.842 -2.295,0.842"
         style="fill:#5ccbf5;fill-opacity:1;fill-rule:nonzero;stroke:none"
         transform="matrix(1.3333333,0,0,-1.3333333,222.81573,847.0468)"
         clip-path="url(#clipPath184)" />
    </g>
    <g
       id="g184">
      <path
         id="path185"
         d="m 0,0 -4.511,2.238 4.886,9.498 c -2.368,0 -4.381,0.847 -6.04,2.54 -1.658,1.691 -2.488,3.796 -2.488,6.307 0,2.436 0.849,4.497 2.55,6.184 1.7,1.687 3.751,2.527 6.154,2.527 2.515,0 4.612,-0.872 6.287,-2.622 C 8.513,24.923 9.35,22.914 9.35,20.64 9.35,19.783 9.22,18.921 8.962,18.055 8.701,17.19 8.104,15.856 7.168,14.05 Z m 0.665,16.762 c 0.986,0 1.815,0.36 2.484,1.078 0.67,0.72 1.005,1.607 1.005,2.667 0,1.086 -0.351,1.992 -1.052,2.723 -0.703,0.732 -1.521,1.098 -2.454,1.098 -0.989,0 -1.837,-0.364 -2.545,-1.087 -0.707,-0.727 -1.058,-1.632 -1.058,-2.716 0,-1.071 0.34,-1.965 1.031,-2.685 0.689,-0.718 1.551,-1.078 2.589,-1.078"
         style="fill:#5cc9cb;fill-opacity:1;fill-rule:nonzero;stroke:none"
         transform="matrix(1.3333333,0,0,-1.3333333,180.43733,759.2772)" />
    </g>
    <g
       id="g185">
      <path
         id="path186"
         d="M 0,0 H 7.947 V -27.895 H 2.673 v 22.907 h -5.746 z"
         style="fill:#3cb597;fill-opacity:1;fill-rule:nonzero;stroke:none"
         transform="matrix(1.3333333,0,0,-1.3333333,192.9824,619.33187)" />
      <path
         id="path187"
         d="m 0,0 c 2.037,0 3.791,-0.499 5.265,-1.498 1.472,-0.999 2.608,-2.523 3.413,-4.578 0.803,-2.055 1.203,-4.916 1.203,-8.582 0,-3.705 -0.407,-6.588 -1.222,-8.647 -0.817,-2.061 -1.913,-3.575 -3.29,-4.542 -1.378,-0.968 -3.118,-1.451 -5.216,-1.451 -2.1,0 -3.862,0.487 -5.292,1.461 -1.428,0.974 -2.545,2.451 -3.355,4.438 -0.809,1.983 -1.214,4.809 -1.214,8.476 0,5.12 0.789,8.83 2.372,11.13 C -5.581,-1.264 -3.132,0 0,0 m 0.124,-5.043 c -0.894,0 -1.691,-0.288 -2.384,-0.864 -0.695,-0.576 -1.224,-1.563 -1.589,-2.967 -0.366,-1.404 -0.55,-3.458 -0.55,-6.163 0,-3.527 0.42,-5.964 1.259,-7.31 0.838,-1.346 1.929,-2.021 3.264,-2.021 1.288,0 2.308,0.639 3.066,1.917 0.92,1.541 1.381,4.119 1.381,7.736 0,3.666 -0.413,6.195 -1.238,7.585 -0.828,1.391 -1.897,2.087 -3.209,2.087"
         style="fill:#3cb597;fill-opacity:1;fill-rule:nonzero;stroke:none"
         transform="matrix(1.3333333,0,0,-1.3333333,227.84813,618.39707)"
         clip-path="url(#clipPath188)" />
    </g>
    <g
       id="g188">
      <path
         id="path189"
         d="M 0,0 H 7.948 V -27.894 H 2.674 v 22.907 h -5.746 z"
         style="fill:#96d550;fill-opacity:1;fill-rule:nonzero;stroke:none"
         transform="matrix(1.3333333,0,0,-1.3333333,286.46027,541.36893)" />
      <path
         id="path190"
         d="M 0,0 H 7.945 V -27.894 H 2.673 v 22.907 h -5.746 z"
         style="fill:#96d550;fill-opacity:1;fill-rule:nonzero;stroke:none"
         transform="matrix(1.3333333,0,0,-1.3333333,315.46427,541.36893)" />
    </g>
    <g
       id="g190">
      <path
         id="path191"
         d="M 0,0 H 7.946 V -27.895 H 2.675 v 22.909 h -5.746 z"
         style="fill:#e3ea09;fill-opacity:1;fill-rule:nonzero;stroke:none"
         transform="matrix(1.3333333,0,0,-1.3333333,388.50293,518.86973)" />
      <path
         id="path192"
         d="m 0,0 h -5.177 c 0.137,3.008 1.083,5.376 2.836,7.101 1.75,1.726 3.997,2.589 6.74,2.589 1.695,0 3.19,-0.357 4.484,-1.071 1.295,-0.715 2.333,-1.745 3.111,-3.092 0.777,-1.344 1.166,-2.715 1.166,-4.105 0,-1.655 -0.471,-3.439 -1.413,-5.347 -0.944,-1.909 -2.665,-4.167 -5.172,-6.772 l -3.129,-3.298 h 9.941 v -4.912 H -5.937 v 2.541 l 8.627,8.799 c 2.087,2.111 3.475,3.809 4.164,5.092 0.69,1.282 1.034,2.444 1.034,3.479 0,1.075 -0.357,1.964 -1.071,2.665 C 6.101,4.371 5.181,4.722 4.057,4.722 2.921,4.722 1.972,4.297 1.213,3.45 0.455,2.604 0.05,1.453 0,0"
         style="fill:#e3ea09;fill-opacity:1;fill-rule:nonzero;stroke:none"
         transform="matrix(1.3333333,0,0,-1.3333333,418.01107,530.85427)"
         clip-path="url(#clipPath193)" />
    </g>
    <g
       id="g193">
      <path
         id="path194"
         d="M 0,0 272.94,-280.541 M 267.112,-10.917 -4.135,-281.323 m 91.594,322.108 97.53,-370.091 M 192.826,33.819 76.477,-329.805 m 235.743,235.22 -368.078,-96.353 m 365.639,-2.99 -366.509,102.333"
         style="fill:none;stroke:#fab957;stroke-width:9.216;stroke-linecap:butt;stroke-linejoin:miter;stroke-miterlimit:10;stroke-dasharray:none;stroke-opacity:1"
         transform="matrix(1.3333333,0,0,-1.3333333,228.62387,556.35413)" />
    </g>
    <g
       id="g194">
      <path
         id="path195"
         d="m 0,0 c 0,-74.674 -62.631,-135.214 -139.886,-135.214 -77.254,0 -139.884,60.54 -139.884,135.214 0,74.674 62.63,135.209 139.884,135.209 C -62.631,135.209 0,74.674 0,0"
         style="fill:#fab957;fill-opacity:1;fill-rule:nonzero;stroke:none"
         transform="matrix(1.3333333,0,0,-1.3333333,589.1184,753.10907)"
         clip-path="url(#clipPath196)" />
    </g>
    <g
       id="g196">
      <path
         id="path197"
         d="m 0,0 c 0,-10.28 -5.471,-18.615 -12.221,-18.615 -6.75,0 -12.221,8.335 -12.221,18.615 0,10.28 5.471,18.613 12.221,18.613 C -5.471,18.613 0,10.28 0,0"
         style="fill:#512414;fill-opacity:1;fill-rule:nonzero;stroke:none"
         transform="matrix(1.3333333,0,0,-1.3333333,319.4684,725.36893)" />
    </g>
    <g
       id="g197">
      <path
         id="path198"
         d="m 0,0 c 0,-10.28 -5.47,-18.614 -12.221,-18.614 -6.749,0 -12.218,8.334 -12.218,18.614 0,10.28 5.469,18.614 12.218,18.614 C -5.47,18.614 0,10.28 0,0"
         style="fill:#512414;fill-opacity:1;fill-rule:nonzero;stroke:none"
         transform="matrix(1.3333333,0,0,-1.3333333,522.5004,730.9016)" />
    </g>
    <g
       id="g198">
      <path
         id="path199"
         d="m 0,0 c 0,-11.65 -10.943,-21.096 -24.441,-21.096 -13.498,0 -24.44,9.446 -24.44,21.096 0,11.651 10.942,21.097 24.44,21.097 C -10.943,21.097 0,11.651 0,0"
         style="fill:#512414;fill-opacity:1;fill-rule:nonzero;stroke:none"
         transform="matrix(1.3333333,0,0,-1.3333333,435.19347,753.11333)" />
    </g>
    <g
       id="g199">
      <path
         id="path200"
         d="m 0,0 -0.726,-45.717 c -24.799,-17.38 -40.038,12.736 -40.038,12.736"
         style="fill:none;stroke:#512414;stroke-width:4.608;stroke-linecap:butt;stroke-linejoin:miter;stroke-miterlimit:10;stroke-dasharray:none;stroke-opacity:1"
         transform="matrix(1.3333333,0,0,-1.3333333,400.31867,758.07493)" />
      <path
         id="path201"
         d="M 0,0 C 0,0 24.673,-19.23 42.814,7.982"
         style="fill:none;stroke:#512414;stroke-width:4.608;stroke-linecap:butt;stroke-linejoin:miter;stroke-miterlimit:10;stroke-dasharray:none;stroke-opacity:1"
         transform="matrix(1.3333333,0,0,-1.3333333,400.1496,819.46613)" />
    </g>
    <g
       id="g257">
      <path
         id="path258"
         d="M 0,0 C 2.439,0 4.417,1.977 4.417,4.417 4.417,6.856 2.439,8.834 0,8.834 -2.439,8.834 -4.417,6.856 -4.417,4.417 -4.417,1.977 -2.439,0 0,0"
         style="fill:#231f20;fill-opacity:1;fill-rule:nonzero;stroke:none"
         transform="matrix(1.3333333,0,0,-1.3333333,345.60707,374.99107)"
         clip-path="url(#clipPath259)" />
    </g>
    <g
       id="g259">
      <path
         id="path260"
         d="M 0,0 C 2.439,0 4.417,1.977 4.417,4.417 4.417,6.856 2.439,8.834 0,8.834 -2.439,8.834 -4.417,6.856 -4.417,4.417 -4.417,1.977 -2.439,0 0,0"
         style="fill:#231f20;fill-opacity:1;fill-rule:nonzero;stroke:none"
         transform="matrix(1.3333333,0,0,-1.3333333,430.89693,376.50293)" />
    </g>
  </g>
</svg>
